<svg width="22" height="14" viewBox="0 0 22 14" fill="none" xmlns="http://www.w3.org/2000/svg">
<path d="M7.23631 13.0955C7.40066 13.2614 7.40066 13.5287 7.23631 13.6947V13.6947C7.06973 13.8628 6.79797 13.8628 6.6314 13.6947L0.697091 7.70374C0.311032 7.314 0.311033 6.686 0.697092 6.29626L6.6314 0.305341C6.79797 0.137177 7.06973 0.137177 7.23631 0.305341V0.305341C7.40066 0.471263 7.40066 0.738615 7.23631 0.904537L3.3141 4.86416C2.68874 5.49548 3.13594 6.5679 4.02456 6.5679H21.5679C21.8065 6.5679 22 6.76136 22 7V7C22 7.23864 21.8065 7.4321 21.5679 7.4321H4.02456C3.13594 7.4321 2.68874 8.50452 3.3141 9.13584L7.23631 13.0955Z" fill="#101011"/>
</svg>
