<svg width="44" height="52" viewBox="0 0 44 52" fill="none" xmlns="http://www.w3.org/2000/svg">
<g clip-path="url(#clip0_13_538)">
<path d="M35.5309 39H35.4192C35.3905 39.0435 35.3617 39.0871 35.3327 39.1304C32.2962 41.1022 28.6592 42.2498 24.75 42.2498C14.1185 42.2498 5.5 33.7619 5.5 23.2914C5.5 19.4415 6.66524 15.8596 8.66733 12.8691C8.71143 12.8405 8.75565 12.812 8.8 12.7838V12.6736C8.75538 12.7385 8.71115 12.8037 8.66733 12.8691C3.44574 16.2599 0 22.0876 0 28.7081C0 39.1785 8.61852 47.6664 19.25 47.6664C25.9723 47.6664 31.8898 44.2729 35.3327 39.1304C35.399 39.0873 35.4651 39.0439 35.5309 39Z" fill="#151515"/>
<g opacity="0.5">
<path d="M44.0006 23.2916C44.0006 29.9121 40.5549 35.7398 35.3333 39.1306C37.3354 36.1401 38.5006 32.5582 38.5006 28.7083C38.5006 18.2378 29.8821 9.74992 19.2506 9.74992C15.3414 9.74992 11.7044 10.8975 8.66797 12.8693C12.1109 7.72678 18.0283 4.33325 24.7506 4.33325C35.3821 4.33325 44.0006 12.8212 44.0006 23.2916Z" fill="#151515"/>
<path d="M35.1992 39.216C35.2435 39.1877 35.2878 39.1592 35.3319 39.1306C35.2881 39.196 35.2439 39.2613 35.1992 39.3262V39.216Z" fill="#151515"/>
<path d="M8.58058 13C8.6093 12.9564 8.63819 12.9128 8.66728 12.8694C8.6008 12.9125 8.53463 12.9561 8.46875 13H8.58058Z" fill="#151515"/>
</g>
</g>
<defs>
<clipPath id="clip0_13_538">
<rect width="44" height="52" fill="white"/>
</clipPath>
</defs>
</svg>
