<svg width="129" height="43" viewBox="0 0 129 43" fill="none" xmlns="http://www.w3.org/2000/svg">
<g clip-path="url(#clip0_13_505)">
<path d="M-0.207031 29.8171L5.72118 12.0325H11.0883L17.0165 29.8171H13.0644L11.869 26.1577H4.94051L3.74511 29.8171H-0.207031ZM5.81876 23.2546H10.9907L9.47816 18.717L8.47792 15.4723H8.33155L7.33131 18.717L5.81876 23.2546Z" fill="#151515"/>
<path d="M23.6299 30.0368C22.3288 30.0368 21.1904 29.7603 20.2145 29.2074C19.2387 28.6381 18.4824 27.8493 17.9457 26.8409C17.409 25.8163 17.1406 24.6291 17.1406 23.2791C17.1406 21.913 17.409 20.7257 17.9457 19.7173C18.4987 18.6927 19.2712 17.9039 20.2633 17.3509C21.2554 16.7817 22.4183 16.4971 23.7519 16.4971C24.8741 16.4971 25.8744 16.7085 26.7526 17.1314C27.6309 17.5542 28.3221 18.1397 28.8263 18.8879C29.3467 19.636 29.6313 20.5061 29.6801 21.4982H26.1671C26.0533 20.8152 25.7687 20.3028 25.3133 19.9613C24.8579 19.6035 24.3049 19.4246 23.6543 19.4246C22.711 19.4246 21.9954 19.7743 21.5075 20.4736C21.0196 21.173 20.7756 22.1081 20.7756 23.2791C20.7756 24.564 21.0358 25.5236 21.5563 26.1579C22.093 26.7922 22.7842 27.1093 23.6299 27.1093C24.3944 27.1093 24.9961 26.9141 25.4352 26.5238C25.8906 26.1335 26.1509 25.6212 26.2159 24.9869H29.7045C29.6557 26.0115 29.363 26.906 28.8263 27.6704C28.3058 28.4186 27.5984 29.0041 26.7038 29.4269C25.8093 29.8335 24.7847 30.0368 23.6299 30.0368Z" fill="#151515"/>
<path d="M31.4219 29.8173V16.741H34.8861L35.0081 19.1074H35.1545C35.4797 18.2454 36.0083 17.5949 36.7402 17.1558C37.4721 16.7166 38.2771 16.4971 39.1554 16.4971C40.0662 16.4971 40.8956 16.7166 41.6436 17.1558C42.3917 17.5949 42.9447 18.3512 43.3025 19.4246H43.4977C43.8067 18.4487 44.3515 17.7169 45.1322 17.2289C45.9291 16.741 46.8237 16.4971 47.8158 16.4971C48.6615 16.4971 49.4178 16.676 50.0846 17.0338C50.7514 17.3916 51.28 17.969 51.6703 18.7659C52.0769 19.5466 52.2802 20.5956 52.2802 21.913V29.8173H48.694V22.6936C48.694 21.5877 48.507 20.7664 48.1329 20.2296C47.7751 19.6929 47.1896 19.4246 46.3764 19.4246C45.5144 19.4246 44.8395 19.7417 44.3515 20.376C43.8799 20.9941 43.6441 21.7178 43.6441 22.5473V29.8173H40.058V22.6936C40.058 21.5877 39.871 20.7664 39.4969 20.2296C39.1391 19.6929 38.5536 19.4246 37.7404 19.4246C36.8622 19.4246 36.1872 19.7417 35.7156 20.376C35.2439 20.9941 35.0081 21.7178 35.0081 22.5473V29.8173H31.4219Z" fill="#151515"/>
<path d="M60.4668 30.0368C59.1007 30.0368 57.9297 29.7603 56.9538 29.2074C55.9943 28.6544 55.2542 27.8818 54.7338 26.8897C54.2133 25.8814 53.9531 24.7104 53.9531 23.3767C53.9531 21.9618 54.2133 20.742 54.7338 19.7173C55.2705 18.6927 56.0186 17.9039 56.9782 17.3509C57.9378 16.7817 59.06 16.4971 60.3449 16.4971C61.8574 16.4971 63.1016 16.8305 64.0774 17.4973C65.0533 18.1479 65.7526 19.0505 66.1755 20.2053C66.5984 21.3437 66.7366 22.6367 66.5902 24.0842H57.4905C57.4743 25.1251 57.7426 25.9302 58.2956 26.4994C58.8486 27.0524 59.5723 27.3289 60.4668 27.3289C61.1499 27.3289 61.7273 27.1825 62.199 26.8897C62.6869 26.5807 62.9959 26.1741 63.126 25.6699H66.517C66.4032 26.5482 66.0698 27.3126 65.5168 27.9632C64.9801 28.6137 64.2807 29.126 63.4187 29.5001C62.5568 29.8579 61.5728 30.0368 60.4668 30.0368ZM60.3449 19.205C59.5317 19.205 58.873 19.4408 58.3688 19.9125C57.8646 20.3679 57.58 20.9941 57.5149 21.791H63.0772C63.0284 20.9127 62.7438 20.2622 62.2233 19.8393C61.7192 19.4165 61.093 19.205 60.3449 19.205Z" fill="#151515"/>
<path d="M81.3977 30.0368C79.6249 30.0368 78.0636 29.6789 76.7136 28.9633C75.38 28.2477 74.3391 27.2068 73.591 25.8407C72.8428 24.4745 72.4688 22.8318 72.4688 20.9127C72.4688 18.9935 72.8428 17.359 73.591 16.0091C74.3391 14.6429 75.38 13.602 76.7136 12.8864C78.0636 12.1708 79.6249 11.813 81.3977 11.813C82.9265 11.813 84.2845 12.0813 85.4718 12.6181C86.6591 13.1385 87.6186 13.8785 88.3505 14.8381C89.0824 15.7814 89.5296 16.8873 89.6923 18.1559H85.8377C85.6263 17.2452 85.1221 16.5051 84.3252 15.9359C83.5445 15.3504 82.5687 15.0576 81.3977 15.0576C79.8689 15.0576 78.6491 15.5456 77.7383 16.5214C76.8438 17.4972 76.3965 18.961 76.3965 20.9127C76.3965 22.8806 76.8438 24.3525 77.7383 25.3283C78.6491 26.3042 79.8689 26.7921 81.3977 26.7921C82.5361 26.7921 83.512 26.5075 84.3252 25.9382C85.1384 25.369 85.6426 24.6127 85.8377 23.6694H89.6923C89.5459 24.938 89.0986 26.0521 88.3505 27.0117C87.6024 27.9712 86.6265 28.7194 85.423 29.2561C84.2357 29.7765 82.894 30.0368 81.3977 30.0368Z" fill="#151515"/>
<path d="M97.4766 30.0368C96.1755 30.0368 95.0288 29.7685 94.0367 29.2318C93.0446 28.695 92.2721 27.9225 91.7191 26.9141C91.1824 25.9058 90.9141 24.6941 90.9141 23.2791C90.9141 21.9292 91.1743 20.7501 91.6947 19.7417C92.2152 18.7171 92.9633 17.9202 93.9392 17.3509C94.915 16.7817 96.0941 16.4971 97.4766 16.4971C98.7777 16.4971 99.9162 16.7654 100.892 17.3021C101.884 17.8388 102.649 18.6195 103.185 19.6441C103.738 20.6525 104.015 21.8642 104.015 23.2791C104.015 24.6291 103.754 25.8163 103.234 26.8409C102.714 27.8493 101.965 28.6381 100.99 29.2074C100.03 29.7603 98.859 30.0368 97.4766 30.0368ZM97.4522 27.1337C98.3304 27.1337 99.0379 26.8166 99.5746 26.1823C100.111 25.548 100.38 24.5803 100.38 23.2791C100.38 21.978 100.119 21.0103 99.599 20.376C99.0786 19.7417 98.3711 19.4246 97.4766 19.4246C96.5821 19.4246 95.8664 19.7417 95.3297 20.376C94.793 21.0103 94.5246 21.978 94.5246 23.2791C94.5246 24.564 94.7849 25.5317 95.3053 26.1823C95.842 26.8166 96.5576 27.1337 97.4522 27.1337Z" fill="#151515"/>
<path d="M105.812 29.8173V16.7411H109.057L109.204 18.8391H109.326C109.618 17.9934 110.082 17.4079 110.716 17.0826C111.367 16.7411 112.107 16.5703 112.936 16.5703H113.668V19.937H112.863C111.659 19.937 110.789 20.2053 110.253 20.742C109.716 21.2625 109.431 22.0106 109.399 22.9864V29.8173H105.812Z" fill="#151515"/>
<path d="M115.07 33.8914V16.741H118.535L118.657 19.0099H118.852C119.161 18.2454 119.673 17.6355 120.389 17.1802C121.121 16.7248 121.991 16.4971 122.999 16.4971C124.56 16.4971 125.821 17.0663 126.78 18.2048C127.756 19.327 128.244 21.0185 128.244 23.2791C128.244 25.5236 127.756 27.215 126.78 28.3535C125.821 29.492 124.56 30.0612 122.999 30.0612C121.991 30.0612 121.121 29.8335 120.389 29.3781C119.673 28.9065 119.161 28.2966 118.852 27.5484H118.657V33.8914H115.07ZM121.657 27.1581C122.535 27.1581 123.235 26.8491 123.755 26.2311C124.292 25.5968 124.56 24.6128 124.56 23.2791C124.56 21.9455 124.292 20.9697 123.755 20.3516C123.235 19.7173 122.535 19.4002 121.657 19.4002C120.99 19.4002 120.437 19.5547 119.998 19.8637C119.559 20.1727 119.234 20.5793 119.022 21.0835C118.811 21.5714 118.705 22.0919 118.705 22.6448V23.9134C118.705 24.4664 118.811 24.995 119.022 25.4992C119.234 25.9871 119.559 26.3856 119.998 26.6946C120.437 27.0036 120.99 27.1581 121.657 27.1581Z" fill="#151515"/>
</g>
<defs>
<clipPath id="clip0_13_505">
<rect width="129" height="43" fill="white"/>
</clipPath>
</defs>
</svg>
