<svg width="149" height="37" viewBox="0 0 149 37" fill="none" xmlns="http://www.w3.org/2000/svg">
<path d="M6.5 12.0356H19.6014L6.71465 24.9223L8.79659 27.0043L21.6834 14.1176V27.219H21.7667L24.6277 24.358V12.3003L21.4187 9.09131H9.35929L6.5 11.9506L6.5 12.0356Z" fill="#151515"/>
<path d="M42.1952 19.3364H44.6893V21.6538H42.1952V24.953H39.4262V21.6538H32.1797V19.631L39.6815 10.7349H42.1952V19.3364ZM35.7146 19.3364H39.4262V14.8L35.7146 19.3364Z" fill="#151515"/>
<path d="M51.6474 15.2909C52.6162 15.2909 53.4803 15.4808 54.2397 15.8605C55.0121 16.2401 55.6144 16.8031 56.0464 17.5494C56.4915 18.2956 56.7141 19.1924 56.7141 20.2398C56.7141 21.7977 56.2232 23.0153 55.2412 23.8925C54.2593 24.7566 52.8781 25.1887 51.0976 25.1887C49.8668 25.1887 48.8326 24.9857 47.9947 24.5799C47.1699 24.174 46.5415 23.6372 46.1094 22.9695C45.6905 22.3018 45.4482 21.5686 45.3828 20.77H48.2107C48.6296 22.2887 49.5854 23.0481 51.0779 23.0481C51.9943 23.0481 52.6883 22.7928 53.1596 22.2822C53.644 21.7716 53.8862 21.0842 53.8862 20.2202C53.8862 19.3429 53.644 18.6622 53.1596 18.1778C52.6751 17.6802 51.9878 17.4315 51.0976 17.4315C49.9193 17.4315 49.0159 17.9225 48.3875 18.9044L45.8345 18.6491L46.7968 10.7349H55.8893V13.0522H49.0945L48.6624 16.3121C49.3694 15.6313 50.3644 15.2909 51.6474 15.2909Z" fill="#151515"/>
<path d="M67.6121 10.7349C69.589 10.7349 71.376 11.2062 72.9733 12.1488C74.5837 13.0783 75.3888 14.9767 75.3888 17.8439C75.3888 20.7111 74.5837 22.616 72.9733 23.5587C71.376 24.4882 69.589 24.953 67.6121 24.953H62.8203V10.7349H67.6121ZM67.5139 22.4786C68.4172 22.4654 69.2224 22.3607 69.9294 22.1644C70.6494 21.9548 71.2582 21.5097 71.7557 20.8289C72.2663 20.1481 72.5216 19.1531 72.5216 17.8439C72.5216 16.5347 72.2663 15.5397 71.7557 14.8589C71.2582 14.1781 70.6494 13.733 69.9294 13.5235C69.2224 13.314 68.4172 13.2093 67.5139 13.2093H65.5893V22.4786H67.5139Z" fill="#151515"/>
<path d="M81.8851 14.1521C83.0244 14.1521 83.9996 14.4074 84.8115 14.918C85.6363 15.4154 86.2451 16.129 86.6379 17.0586C87.0435 17.9881 87.2134 19.0813 87.1485 20.3382H79.2143C79.306 21.2284 79.5874 21.9027 80.0588 22.3609C80.5301 22.8191 81.1454 23.0482 81.9048 23.0482C82.5728 23.0482 83.109 22.8846 83.5154 22.5573C83.9339 22.2299 84.2156 21.8175 84.3598 21.3201H87.0896C86.8539 22.5507 86.2708 23.5064 85.3418 24.1873C84.4248 24.855 83.2797 25.1888 81.9048 25.1888C80.7789 25.1888 79.8035 24.9597 78.9787 24.5015C78.1538 24.0432 77.5254 23.4017 77.0934 22.5769C76.6613 21.739 76.4453 20.7702 76.4453 19.6705C76.4453 18.5838 76.6679 17.6215 77.113 16.7836C77.5582 15.9457 78.1931 15.2976 79.0179 14.8394C79.8427 14.3812 80.7985 14.1521 81.8851 14.1521ZM84.4188 18.61C84.3402 17.903 84.0849 17.3335 83.6529 16.9015C83.2337 16.4694 82.6377 16.2534 81.8655 16.2534C81.1585 16.2534 80.5825 16.4498 80.1373 16.8425C79.6922 17.2353 79.3976 17.8245 79.2536 18.61H84.4188Z" fill="#151515"/>
<path d="M98.6675 14.3878V24.5211C98.6675 25.8958 98.2294 27.002 97.3517 27.84C96.4748 28.6909 95.1915 29.1165 93.5026 29.1165C92.0366 29.1165 90.8711 28.7891 90.007 28.1346C89.1429 27.493 88.6323 26.6289 88.4752 25.5423H91.1657C91.4799 26.5111 92.2594 26.9955 93.5026 26.9955C94.3667 26.9955 94.9951 26.7795 95.3879 26.3475C95.7807 25.9285 95.9771 25.3067 95.9771 24.4818V23.0679C95.2444 24.1938 94.1379 24.7568 92.6582 24.7568C91.7291 24.7568 90.9104 24.5473 90.2034 24.1284C89.51 23.6963 88.9662 23.081 88.5734 22.2824C88.1943 21.4837 88.0039 20.541 88.0039 19.4544C88.0039 18.3678 88.1943 17.4251 88.5734 16.6265C88.9662 15.8279 89.51 15.2191 90.2034 14.8002C90.9104 14.3681 91.7291 14.1521 92.6582 14.1521C94.1507 14.1521 95.2572 14.715 95.9771 15.841V14.3878H98.6675ZM93.3848 22.6358C94.2625 22.6358 94.9362 22.3413 95.4075 21.7521C95.8789 21.163 96.1145 20.3971 96.1145 19.4544C96.1145 18.5118 95.8789 17.7459 95.4075 17.1568C94.9362 16.5676 94.2625 16.273 93.3848 16.273C92.495 16.273 91.8273 16.5741 91.3817 17.1764C90.9497 17.7655 90.7336 18.5249 90.7336 19.4544C90.7336 20.3839 90.9497 21.1498 91.3817 21.7521C91.8273 22.3413 92.495 22.6358 93.3848 22.6358Z" fill="#151515"/>
<path d="M106.011 14.27C106.233 14.27 106.456 14.2897 106.678 14.3289V17.0194C106.443 16.9801 106.194 16.9605 105.932 16.9605C105.107 16.9605 104.492 17.1569 104.086 17.5496C103.681 17.9292 103.425 18.3809 103.32 18.9047C103.215 19.4153 103.163 20.0109 103.163 20.6917V24.9533H100.473V14.3878H103.124V16.1946C103.7 14.9115 104.662 14.27 106.011 14.27Z" fill="#151515"/>
<path d="M112.698 14.1521C113.837 14.1521 114.813 14.4074 115.624 14.918C116.449 15.4154 117.057 16.129 117.45 17.0586C117.856 17.9881 118.026 19.0813 117.961 20.3382H110.027C110.119 21.2284 110.4 21.9027 110.871 22.3609C111.343 22.8191 111.958 23.0482 112.717 23.0482C113.385 23.0482 113.922 22.8846 114.328 22.5573C114.747 22.2299 115.029 21.8175 115.172 21.3201H117.902C117.666 22.5507 117.084 23.5064 116.154 24.1873C115.238 24.855 114.092 25.1888 112.717 25.1888C111.592 25.1888 110.616 24.9597 109.791 24.5015C108.966 24.0432 108.338 23.4017 107.906 22.5769C107.474 21.739 107.258 20.7702 107.258 19.6705C107.258 18.5838 107.481 17.6215 107.926 16.7836C108.371 15.9457 109.006 15.2976 109.83 14.8394C110.655 14.3812 111.611 14.1521 112.698 14.1521ZM115.231 18.61C115.152 17.903 114.897 17.3335 114.465 16.9015C114.047 16.4694 113.451 16.2534 112.678 16.2534C111.971 16.2534 111.395 16.4498 110.95 16.8425C110.505 17.2353 110.21 17.8245 110.066 18.61H115.231Z" fill="#151515"/>
<path d="M124.217 14.1519C125.356 14.1519 126.331 14.4072 127.143 14.9177C127.968 15.4152 128.577 16.1288 128.97 17.0583C129.375 17.9878 129.545 19.0811 129.48 20.3379H121.546C121.638 21.2281 121.919 21.9024 122.391 22.3607C122.862 22.8188 123.477 23.048 124.237 23.048C124.904 23.048 125.441 22.8843 125.847 22.557C126.266 22.2297 126.547 21.8173 126.692 21.3198H129.421C129.186 22.5505 128.603 23.5062 127.673 24.187C126.757 24.8547 125.611 25.1886 124.237 25.1886C123.111 25.1886 122.135 24.9594 121.311 24.5012C120.486 24.043 119.857 23.4015 119.425 22.5767C118.993 21.7387 118.777 20.77 118.777 19.6702C118.777 18.5835 118.999 17.6213 119.445 16.7834C119.89 15.9454 120.525 15.2974 121.35 14.8392C122.175 14.3809 123.13 14.1519 124.217 14.1519ZM126.75 18.6097C126.672 17.9028 126.417 17.3333 125.985 16.9012C125.565 16.4692 124.969 16.2532 124.198 16.2532C123.491 16.2532 122.914 16.4495 122.469 16.8423C122.024 17.2351 121.729 17.8242 121.586 18.6097H126.75Z" fill="#151515"/>
<path d="M135.353 25.1886C133.755 25.1886 132.518 24.8351 131.641 24.1281C130.764 23.4211 130.266 22.5308 130.148 21.4573H132.839C133.192 22.5832 134.05 23.1462 135.412 23.1462C136.04 23.1462 136.531 23.0349 136.884 22.8123C137.238 22.5767 137.415 22.2755 137.415 21.909C137.415 21.5162 137.218 21.2413 136.825 21.0842C136.446 20.9139 135.791 20.7438 134.862 20.5736C133.998 20.4295 133.258 20.2594 132.643 20.063C132.027 19.8535 131.497 19.5262 131.052 19.0811C130.607 18.6359 130.384 18.0402 130.384 17.294C130.384 16.2335 130.829 15.448 131.72 14.9374C132.61 14.4136 133.696 14.1519 134.979 14.1519C136.393 14.1519 137.52 14.4595 138.357 15.0749C139.209 15.6901 139.712 16.5149 139.869 17.5493H137.179C137.022 17.1172 136.767 16.7834 136.413 16.5477C136.072 16.3121 135.575 16.1942 134.921 16.1942C134.358 16.1942 133.906 16.2859 133.566 16.4692C133.238 16.6524 133.075 16.9012 133.075 17.2154C133.075 17.4904 133.205 17.7195 133.467 17.9028C133.742 18.0729 134.044 18.1973 134.371 18.2759C134.698 18.3545 135.261 18.4723 136.06 18.6294C137.474 18.8912 138.502 19.2382 139.143 19.6702C139.784 20.1023 140.105 20.7568 140.105 21.634C140.105 22.7076 139.693 23.5717 138.868 24.2263C138.043 24.8678 136.872 25.1886 135.353 25.1886Z" fill="#151515"/>
<path d="M144.737 17.0582C144.147 17.0582 143.598 16.9272 143.087 16.6654C142.589 16.3905 142.19 16.0042 141.889 15.5068C141.601 15.0093 141.457 14.4332 141.457 13.7786C141.457 13.124 141.601 12.5479 141.889 12.0504C142.19 11.5529 142.589 11.1732 143.087 10.9114C143.598 10.6365 144.147 10.499 144.737 10.499C145.326 10.499 145.869 10.6365 146.367 10.9114C146.877 11.1732 147.283 11.5595 147.584 12.0701C147.885 12.5675 148.036 13.1371 148.036 13.7786C148.036 14.4201 147.885 14.9962 147.584 15.5068C147.283 16.0042 146.877 16.3905 146.367 16.6654C145.869 16.9272 145.326 17.0582 144.737 17.0582ZM144.737 15.4086C145.182 15.4086 145.535 15.2646 145.797 14.9766C146.072 14.6754 146.209 14.2761 146.209 13.7786C146.209 13.2811 146.072 12.8883 145.797 12.6003C145.535 12.3122 145.182 12.1683 144.737 12.1683C144.305 12.1683 143.951 12.3122 143.676 12.6003C143.414 12.8883 143.283 13.2811 143.283 13.7786C143.283 14.2761 143.414 14.6754 143.676 14.9766C143.951 15.2646 144.305 15.4086 144.737 15.4086Z" fill="#151515"/>
<path fill-rule="evenodd" clip-rule="evenodd" d="M144.75 12.3164C143.938 12.3164 143.281 12.9741 143.281 13.7855C143.281 14.5969 143.938 15.2546 144.75 15.2546C145.562 15.2546 146.219 14.5969 146.219 13.7855C146.219 12.9741 145.562 12.3164 144.75 12.3164ZM144.75 17.0749C146.567 17.0749 148.04 15.6022 148.04 13.7855C148.04 11.9688 146.567 10.4961 144.75 10.4961C142.933 10.4961 141.461 11.9688 141.461 13.7855C141.461 15.6022 142.933 17.0749 144.75 17.0749Z" fill="#151515"/>
</svg>
