<svg width="65" height="64" viewBox="0 0 65 64" fill="none" xmlns="http://www.w3.org/2000/svg">
<g clip-path="url(#clip0_13_501)">
<path fill-rule="evenodd" clip-rule="evenodd" d="M45.8346 37.3335H37.3772C35.9626 37.3335 34.6061 37.8954 33.6058 38.8956L31.3968 41.1047C30.3965 42.105 29.04 42.6668 27.6254 42.6668H19.168C14.7497 42.6668 11.168 39.0851 11.168 34.6668C11.168 30.2486 14.7497 26.6668 19.168 26.6668H27.6254C29.04 26.6668 30.3965 26.105 31.3968 25.1047L33.6058 22.8956C34.6061 21.8954 35.9626 21.3335 37.3772 21.3335H45.8346C50.2529 21.3335 53.8346 24.9152 53.8346 29.3335C53.8346 33.7518 50.2529 37.3335 45.8346 37.3335ZM37.3772 26.6668C35.9626 26.6668 34.6061 27.2287 33.6058 28.229L31.3968 30.438C30.3965 31.4383 29.04 32.0002 27.6254 32.0002H19.168C17.6952 32.0002 16.5013 33.194 16.5013 34.6668C16.5013 36.1396 17.6952 37.3335 19.168 37.3335H27.6254C29.04 37.3335 30.3965 36.7716 31.3968 35.7714L33.6058 33.5623C34.6061 32.562 35.9626 32.0002 37.3772 32.0002H45.8346C47.3074 32.0002 48.5013 30.8063 48.5013 29.3335C48.5013 27.8607 47.3074 26.6668 45.8346 26.6668H37.3772Z" fill="#151515"/>
<path fill-rule="evenodd" clip-rule="evenodd" d="M45.8333 48.0001H37.3759C35.9613 48.0001 34.6048 48.562 33.6045 49.5622L31.3955 51.7713C30.3952 52.7715 29.0387 53.3334 27.6241 53.3334H19.1667C8.85735 53.3334 0.5 44.9761 0.5 34.6667C0.5 24.3574 8.85735 16.0001 19.1667 16.0001H27.6241C29.0387 16.0001 30.3952 15.4382 31.3955 14.4379L33.6045 12.2288C34.6048 11.2287 35.9613 10.6667 37.3759 10.6667H45.8333C56.1427 10.6667 64.5 19.0241 64.5 29.3334C64.5 39.6427 56.1427 48.0001 45.8333 48.0001ZM37.3759 16.0001C35.9613 16.0001 34.6048 16.5619 33.6045 17.5622L31.3955 19.7713C30.3952 20.7715 29.0387 21.3334 27.6241 21.3334H19.1667C11.8029 21.3334 5.83333 27.303 5.83333 34.6667C5.83333 42.0305 11.8029 48.0001 19.1667 48.0001H27.6241C29.0387 48.0001 30.3952 47.4382 31.3955 46.438L33.6045 44.2289C34.6048 43.2286 35.9613 42.6667 37.3759 42.6667H45.8333C53.1971 42.6667 59.1667 36.6971 59.1667 29.3334C59.1667 21.9697 53.1971 16.0001 45.8333 16.0001H37.3759Z" fill="#151515"/>
</g>
<defs>
<clipPath id="clip0_13_501">
<rect width="64" height="64" fill="white" transform="translate(0.5)"/>
</clipPath>
</defs>
</svg>
