<svg width="55" height="63" viewBox="0 0 55 63" fill="none" xmlns="http://www.w3.org/2000/svg">
<g clip-path="url(#clip0_13_533)">
<path d="M35.8577 49.4573C46.1539 49.4573 54.5006 41.1107 54.5006 30.8145C54.5006 20.5183 46.1539 12.1716 35.8577 12.1716C25.5615 12.1716 17.2148 20.5183 17.2148 30.8145C17.2148 41.1107 25.5615 49.4573 35.8577 49.4573Z" fill="#151515"/>
<path opacity="0.5" d="M19.4252 22.0007C17.9315 21.464 16.3214 21.1716 14.6429 21.1716C6.83198 21.1716 0.5 27.5036 0.5 35.3145C0.5 43.1253 6.83198 49.4573 14.6429 49.4573H35.8571C25.561 49.4573 17.2143 41.1106 17.2143 30.8145C17.2143 27.6263 18.0145 24.6251 19.4252 22.0007Z" fill="#151515"/>
</g>
<defs>
<clipPath id="clip0_13_533">
<rect width="54" height="61.7143" fill="white" transform="translate(0.5 0.600098)"/>
</clipPath>
</defs>
</svg>
