<svg width="149" height="40" viewBox="0 0 149 40" fill="none" xmlns="http://www.w3.org/2000/svg">
<path fill-rule="evenodd" clip-rule="evenodd" d="M13.315 23.456L17.0761 27.2171C19.3649 29.5059 23.0757 29.5059 25.3646 27.2171C26.1194 26.4622 26.6253 25.5527 26.8822 24.5906L29.5088 27.2171C31.7976 29.5059 35.5084 29.5059 37.7972 27.2171C40.086 24.9283 40.086 21.2174 37.7972 18.9287L29.5088 10.6402C27.22 8.3514 23.5091 8.3514 21.2203 10.6402C20.4654 11.395 19.9596 12.3046 19.7027 13.2667L17.0761 10.6402C14.7873 8.3514 11.0765 8.3514 8.78763 10.6402L1.96693 17.4609C-0.655644 20.0835 -0.655644 24.3355 1.96693 26.9581C4.5895 29.5807 8.84155 29.5807 11.4641 26.9581C12.4569 25.9653 13.0739 24.739 13.315 23.456ZM15.004 12.7123C13.8596 11.5679 12.0041 11.5679 10.8597 12.7123C9.71587 13.8562 9.71538 15.7105 10.8583 16.8551L19.1482 25.145C20.2926 26.2893 22.1481 26.2893 23.2924 25.145C24.4362 24.0012 24.4368 22.1471 23.2942 21.0026L15.004 12.7123ZM9.39202 19.533L6.71552 16.8565L4.03904 19.533C2.56087 21.0112 2.56087 23.4078 4.03904 24.886C5.51722 26.3642 7.91383 26.3642 9.39202 24.886C10.8702 23.4078 10.8702 21.0112 9.39202 19.533ZM23.29 16.8541C22.1481 15.7095 22.1488 13.8559 23.2924 12.7123C24.4368 11.5679 26.2922 11.5679 27.4367 12.7123L35.7251 21.0008C36.8695 22.1452 36.8695 24.0006 35.7251 25.145C34.5807 26.2893 32.7253 26.2893 31.5809 25.145L23.29 16.8541Z" fill="#151515"/>
<path d="M49.8457 27.1655H46.0977V9.49951H49.8457L55.0977 21.031L60.3737 9.49951H64.1695V27.1655H60.4214V23.4652C60.4214 19.6455 60.4214 18.81 60.6124 17.4969L56.8643 25.5191H53.3312L49.607 17.4969C49.8218 18.81 49.8457 20.2901 49.8457 22.2238V27.1655Z" fill="#151515"/>
<path d="M71.0007 27.4759C68.4701 27.4759 66.8945 25.9958 66.8945 23.6563C66.8945 21.46 68.4463 20.0992 71.311 19.8844L74.6532 19.6218V19.4308C74.6532 18.261 73.937 17.6403 72.624 17.6403C71.0723 17.6403 70.2367 18.2371 70.2367 19.3114H67.181C67.181 16.6138 69.4012 14.8472 72.815 14.8472C76.2766 14.8472 78.2342 16.7809 78.2342 20.1947V27.1656H74.9875L74.7487 25.59C74.3668 26.6881 72.7911 27.4759 71.0007 27.4759ZM72.2898 24.7544C73.6983 24.7544 74.6771 24.0621 74.6771 22.7014V22.0568L72.815 22.2239C71.2155 22.3671 70.6426 22.7252 70.6426 23.4892C70.6426 24.3486 71.1678 24.7544 72.2898 24.7544Z" fill="#151515"/>
<path d="M80.2743 20.9825C80.2743 17.3538 82.6377 14.8232 86.0038 14.8232C87.6272 14.8232 88.9163 15.4439 89.5609 16.4227L89.7519 15.2291H93.2134V26.4016C93.2134 30.6749 90.7545 33.2531 86.6723 33.2531C83.0197 33.2531 80.5608 31.1762 80.2266 27.7862H83.9507C84.0224 29.1231 85.025 29.9109 86.6484 29.9109C88.415 29.9109 89.537 28.8605 89.537 27.1655V25.6138C88.8208 26.4732 87.4839 27.0223 85.9322 27.0223C82.59 27.0223 80.2743 24.5634 80.2743 20.9825ZM83.9746 20.887C83.9746 22.6058 85.1205 23.8233 86.7439 23.8233C88.415 23.8233 89.537 22.6536 89.537 20.887C89.537 19.1442 88.415 18.0222 86.72 18.0222C85.0966 18.0222 83.9746 19.192 83.9746 20.887Z" fill="#151515"/>
<path d="M99.6569 27.1656H95.9805V15.2291H99.442L99.6808 16.4705C100.421 15.444 101.782 14.8472 103.333 14.8472C106.174 14.8472 107.821 16.6615 107.821 19.7889V27.1656H104.145V20.6722C104.145 19.1682 103.309 18.1894 102.044 18.1894C100.588 18.1894 99.6569 19.1443 99.6569 20.6244V27.1656Z" fill="#151515"/>
<path d="M109.812 21.1733C109.812 17.4014 112.582 14.8708 116.401 14.8708C120.197 14.8708 122.966 17.4014 122.966 21.1733C122.966 24.9452 120.197 27.4519 116.401 27.4519C112.582 27.4519 109.812 24.9452 109.812 21.1733ZM113.513 21.1494C113.513 22.9638 114.683 24.1574 116.401 24.1574C118.096 24.1574 119.266 22.9638 119.266 21.1494C119.266 19.359 118.096 18.1653 116.401 18.1653C114.683 18.1653 113.513 19.359 113.513 21.1494Z" fill="#151515"/>
<path d="M128.774 27.1655H125.098V9.16528H128.774V27.1655Z" fill="#151515"/>
<path d="M133.347 13.367C132.177 13.367 131.246 12.4359 131.246 11.2662C131.246 10.0964 132.177 9.18921 133.347 9.18921C134.493 9.18921 135.424 10.0964 135.424 11.2662C135.424 12.4359 134.493 13.367 133.347 13.367ZM131.533 27.1655V15.2291H135.209V27.1655H131.533Z" fill="#151515"/>
<path d="M141.571 27.4759C139.04 27.4759 137.465 25.9958 137.465 23.6563C137.465 21.46 139.017 20.0992 141.881 19.8844L145.224 19.6218V19.4308C145.224 18.261 144.507 17.6403 143.194 17.6403C141.643 17.6403 140.807 18.2371 140.807 19.3114H137.751C137.751 16.6138 139.971 14.8472 143.385 14.8472C146.847 14.8472 148.804 16.7809 148.804 20.1947V27.1656H145.558L145.319 25.59C144.937 26.6881 143.361 27.4759 141.571 27.4759ZM142.86 24.7544C144.269 24.7544 145.247 24.0621 145.247 22.7014V22.0568L143.385 22.2239C141.786 22.3671 141.213 22.7252 141.213 23.4892C141.213 24.3486 141.738 24.7544 142.86 24.7544Z" fill="#151515"/>
</svg>
