<svg width="48" height="59" viewBox="0 0 48 59" fill="none" xmlns="http://www.w3.org/2000/svg">
<g clip-path="url(#clip0_13_575)">
<path d="M28.1458 42.071C24.3276 40.643 20.4005 40.4234 16.8005 41.4119C14.2914 42.071 11.8915 43.3892 9.70971 45.0369L8.18244 46.3551L7.74609 46.7944L8.72789 47.6732C8.83698 47.6732 8.83699 47.7831 8.94608 47.8929C9.16425 48.1126 9.38245 48.2224 9.70971 48.4421L10.3642 48.8815L11.0188 48.3323C11.1279 48.2224 11.346 48.0028 11.5642 47.8929C13.5278 46.2452 15.7096 45.1467 18.0005 44.5975C20.9459 43.8286 24.1094 43.9384 27.273 45.1467C29.8912 46.1354 35.2366 47.3436 41.6728 44.5975L41.8909 44.4876L42.2183 44.1581C42.2183 44.0482 42.3274 44.0482 42.4364 43.9384C42.9818 43.2794 43.5274 42.6202 43.9637 41.8514L46.1454 38.446L42.6546 40.4232C37.5274 43.2793 32.8366 43.8286 28.1458 42.071Z" fill="#151515"/>
<path d="M13.2012 30.2077C16.1466 29.4388 19.3101 29.5487 22.4738 30.757C25.9646 32.0752 34.9099 33.9425 44.9461 24.8253L47.1279 22.6283L46.9097 22.0791C46.8006 21.6398 46.5824 21.0905 46.3643 20.5413L45.8189 19.0034L44.7279 20.1018C44.6189 20.3216 44.4007 20.4314 44.1824 20.6511C39.3825 25.5942 31.9645 30.6472 23.4555 27.5715C19.6375 26.1435 15.7103 25.9237 12.1103 26.9123C8.61947 27.901 5.56497 29.7683 2.72866 32.4047V32.2948L1.09232 34.0524C1.09232 34.1622 0.983251 34.1622 0.874163 34.272L0.546875 34.6015L0.655971 35.041C0.76506 35.5902 0.983231 36.1394 1.09232 36.6887L1.74687 38.4462L2.83775 37.0182C2.94684 36.7985 3.16501 36.6887 3.27411 36.469C5.56497 34.3819 8.72856 31.416 13.2012 30.2077Z" fill="#151515"/>
<path d="M2.61816 28.2304C5.12722 25.5941 7.9635 23.9464 11.018 23.0676C13.9634 22.2987 17.127 22.4086 20.2906 23.6169C30.1086 27.2418 38.6176 21.3101 42.3265 18.1245L43.7447 16.6965L44.2902 16.2572L43.8538 15.598C43.5265 15.2685 43.3084 14.8292 42.9811 14.3897L42.3265 13.511L41.563 14.2798C41.4539 14.3897 41.2357 14.6094 41.1265 14.7193C36.5448 19.1132 29.454 23.6169 21.3815 20.5412C17.5633 19.1132 13.6362 18.8934 10.0362 19.882C7.74533 20.5412 5.56355 21.6396 3.38177 23.0676L1.09089 24.9351C0.872712 25.1547 0.763624 25.2646 0.545446 25.4842L0.327287 25.7039V26.0334C0.218198 26.8024 0.218185 27.5713 0.109096 28.2304L0 30.9766L1.85453 28.9993C2.0727 28.7796 2.2909 28.4501 2.61816 28.2304Z" fill="#151515"/>
<path d="M31.3088 49.5407C30.9816 49.4308 30.7634 49.3209 30.4362 49.211C26.618 47.783 22.6908 47.5633 19.0908 48.552C18.3272 48.7717 17.5637 48.9914 16.8 49.321L14.1818 50.5292L13.5273 50.8588L15.7091 51.6277C16.3637 51.8474 17.0181 52.0672 17.6727 52.2868L18 52.3967L18.3272 52.2868C18.6545 52.177 18.9818 51.9572 19.3091 51.9572C19.5272 51.9572 19.7454 51.8474 19.9635 51.7375C22.5817 51.0785 25.418 51.0785 28.4725 52.067C28.7997 52.177 29.018 52.2868 29.3453 52.3967L29.8907 52.6164L30.2179 52.5065C30.9816 52.2868 31.8542 52.0672 32.5088 51.7375L35.5633 50.6392L32.3997 49.8702C32.0725 49.7603 31.6361 49.6505 31.3088 49.5407Z" fill="#151515"/>
<path d="M48.0008 26.8025L46.3644 28.4502C46.1463 28.6699 45.9281 28.8895 45.71 29.1092C41.2373 33.3932 34.0375 38.0068 25.9648 34.9311C22.1467 33.5031 18.2195 33.2834 14.6195 34.272C11.2378 35.2607 8.18328 37.0182 5.45605 39.6546L4.03791 41.1924L3.60156 41.7416L4.03791 42.4006C4.36518 42.8401 4.58337 43.1696 4.80155 43.609L5.45605 44.5976L6.21969 43.609C6.32878 43.4991 6.54695 43.2794 6.65604 43.1696C9.27418 40.3136 12.1105 38.5561 15.3832 37.6773C18.3286 36.9083 21.4922 37.0182 24.6557 38.2264C27.383 39.2151 30.2193 39.5446 33.0556 39.2151C38.0737 38.6659 43.0918 35.8099 46.8008 32.6244C47.0191 32.4047 47.2371 32.2948 47.4554 32.0751L47.7826 31.7455V31.416C47.7826 30.7569 47.8917 29.988 47.8917 29.3289L48.0008 26.8025Z" fill="#151515"/>
<path d="M6.54628 16.6969C7.20082 16.3672 7.96447 16.1476 8.61899 15.9279C11.5644 15.1589 14.728 15.2688 17.8915 16.4771C19.9643 17.2461 22.0369 17.5756 24.3278 17.5756C28.9096 17.5756 33.4913 15.9279 37.7458 12.7424L39.9275 10.9848L38.9458 10.2159C38.6185 9.8863 38.1821 9.55678 37.7458 9.33709L37.0912 8.89771L36.5458 9.33709C36.3276 9.44694 36.2185 9.66663 36.0004 9.77647C30.2186 14.1704 24.4369 15.3787 18.9824 13.2916C15.0552 11.8636 11.128 11.534 7.20082 12.7424C6.87356 12.8522 6.54629 12.962 6.10994 13.0719L5.89178 13.1817L5.56449 13.5112C5.56449 13.6211 5.45542 13.6211 5.34633 13.7309C4.90997 14.3901 4.36451 14.9392 3.92816 15.5984L1.85547 18.7839L5.23724 17.0264C5.78267 17.0264 6.21902 16.8067 6.54628 16.6969Z" fill="#151515"/>
<path d="M15.4909 9.22699L15.8181 9.33684C17.2363 9.88608 19.4181 10.4353 22.1452 10.4353C24.9816 10.4353 27.7088 9.77622 30.436 8.67776L33.8178 7.03006L31.527 6.26115C30.8725 6.04145 30.2179 5.82176 29.4542 5.71191H29.127L28.7997 5.82174C28.4725 5.93158 28.1451 6.1513 27.8179 6.26115C24.5452 7.46946 21.2726 7.68916 18.109 6.81039C17.7817 6.70054 17.4544 6.59067 17.1272 6.48082L16.8 6.37097L16.4726 6.48082C15.8181 6.70051 15.1636 6.92022 14.509 7.24976L12 8.34823L14.6181 9.11713C14.8363 9.00729 15.1636 9.11714 15.4909 9.22699Z" fill="#151515"/>
</g>
<defs>
<clipPath id="clip0_13_575">
<rect width="48" height="58" fill="white" transform="translate(0 0.118896)"/>
</clipPath>
</defs>
</svg>
