<svg width="22" height="14" viewBox="0 0 22 14" fill="none" xmlns="http://www.w3.org/2000/svg">
<path d="M14.7637 13.0955C14.5993 13.2614 14.5993 13.5287 14.7637 13.6947V13.6947C14.9303 13.8628 15.202 13.8628 15.3686 13.6947L21.3029 7.70374C21.689 7.314 21.689 6.686 21.3029 6.29626L15.3686 0.305341C15.202 0.137177 14.9303 0.137177 14.7637 0.305341V0.305341C14.5993 0.471263 14.5993 0.738615 14.7637 0.904537L18.6859 4.86416C19.3113 5.49548 18.8641 6.5679 17.9754 6.5679H0.432099C0.193457 6.5679 0 6.76136 0 7V7C0 7.23864 0.193457 7.4321 0.432099 7.4321H17.9754C18.8641 7.4321 19.3113 8.50452 18.6859 9.13584L14.7637 13.0955Z" fill="#101011"/>
</svg>
